<svg width="375" height="346" viewBox="0 0 375 346" fill="none" xmlns="http://www.w3.org/2000/svg">
<g filter="url(#filter0_d_465_5107)">
<path d="M362 53V293C362 302.08 355.96 309.73 347.68 312.18C344.57 313.1 342.1 315.57 341.18 318.68C338.73 326.96 331.07 333 322 333H53C43.93 333 36.27 326.96 33.82 318.68C32.9 315.57 30.43 313.1 27.32 312.18C19.04 309.73 13 302.07 13 293V53C13 43.93 19.04 36.27 27.32 33.82C30.42 32.9 32.9 30.43 33.82 27.32C36.27 19.04 43.93 13 53 13H322C331.07 13 338.73 19.04 341.18 27.32C342.1 30.43 344.57 32.9 347.68 33.82C355.96 36.27 362 43.93 362 53Z" fill="#FAF1EE"/>
<path d="M322 18.5C328.38 18.5 334.1 22.77 335.91 28.88C337.35 33.74 341.26 37.66 346.12 39.09C352.23 40.9 356.5 46.62 356.5 53V293C356.5 299.38 352.23 305.1 346.12 306.91C341.26 308.35 337.34 312.26 335.9 317.13C334.09 323.24 328.38 327.51 321.99 327.51H52.99C46.61 327.51 40.89 323.24 39.08 317.13C37.64 312.27 33.73 308.36 28.87 306.92C22.76 305.11 18.49 299.39 18.49 293.01V53.01C18.49 46.63 22.76 40.91 28.87 39.1C33.73 37.66 37.64 33.75 39.08 28.89C40.89 22.78 46.61 18.51 52.99 18.51H322M322 13H53C43.93 13 36.27 19.04 33.82 27.32C32.9 30.42 30.43 32.9 27.32 33.82C19.04 36.27 13 43.93 13 53V293C13 302.07 19.04 309.73 27.32 312.18C30.43 313.1 32.9 315.57 33.82 318.68C36.27 326.96 43.93 333 53 333H322C331.08 333 338.73 326.96 341.18 318.68C342.1 315.57 344.57 313.1 347.68 312.18C355.96 309.73 362 302.07 362 293V53C362 43.93 355.96 36.27 347.68 33.82C344.57 32.9 342.1 30.43 341.18 27.32C338.73 19.04 331.07 13 322 13Z" fill="#40210F"/>
<path d="M322 18.5C328.38 18.5 334.1 22.77 335.91 28.88C337.35 33.74 341.26 37.66 346.12 39.09C352.23 40.9 356.5 46.62 356.5 53V293C356.5 299.38 352.23 305.1 346.12 306.91C341.26 308.35 337.34 312.26 335.9 317.13C334.09 323.24 328.38 327.51 321.99 327.51H52.99C46.61 327.51 40.89 323.24 39.08 317.13C37.64 312.27 33.73 308.36 28.87 306.92C22.76 305.11 18.49 299.39 18.49 293.01V53.01C18.49 46.63 22.76 40.91 28.87 39.1C33.73 37.66 37.64 33.75 39.08 28.89C40.89 22.78 46.61 18.51 52.99 18.51H322M322 13H53C43.93 13 36.27 19.04 33.82 27.32C32.9 30.42 30.43 32.9 27.32 33.82C19.04 36.27 13 43.93 13 53V293C13 302.07 19.04 309.73 27.32 312.18C30.43 313.1 32.9 315.57 33.82 318.68C36.27 326.96 43.93 333 53 333H322C331.08 333 338.73 326.96 341.18 318.68C342.1 315.57 344.57 313.1 347.68 312.18C355.96 309.73 362 302.07 362 293V53C362 43.93 355.96 36.27 347.68 33.82C344.57 32.9 342.1 30.43 341.18 27.32C338.73 19.04 331.07 13 322 13Z" stroke="#40210F" stroke-width="2"/>
<path d="M322 15C329.92 15 337.02 20.3 339.26 27.89C340.37 31.63 343.37 34.64 347.11 35.74C354.7 37.98 360 45.08 360 53V293C360 300.92 354.7 308.02 347.12 310.26C343.38 311.37 340.37 314.37 339.27 318.11C337.03 325.7 329.93 330.99 322.01 330.99H53.01C45.09 330.99 37.99 325.69 35.75 318.1C34.65 314.36 31.64 311.36 27.9 310.25C20.31 308.01 15.01 300.91 15.01 292.99V52.99C15.01 45.07 20.31 37.97 27.9 35.73C31.64 34.62 34.64 31.62 35.75 27.88C38 20.29 45.09 14.99 53.01 14.99H322M322 13H53C43.93 13 36.27 19.04 33.82 27.32C32.9 30.42 30.43 32.9 27.32 33.82C19.04 36.27 13 43.93 13 53V293C13 302.07 19.04 309.73 27.32 312.18C30.43 313.1 32.9 315.57 33.82 318.68C36.27 326.96 43.93 333 53 333H322C331.08 333 338.73 326.96 341.18 318.68C342.1 315.57 344.57 313.1 347.68 312.18C355.96 309.73 362 302.07 362 293V53C362 43.93 355.96 36.27 347.68 33.82C344.57 32.9 342.1 30.43 341.18 27.32C338.73 19.04 331.07 13 322 13Z" fill="#F7F7F7"/>
<path d="M322 15C329.92 15 337.02 20.3 339.26 27.89C340.37 31.63 343.37 34.64 347.11 35.74C354.7 37.98 360 45.08 360 53V293C360 300.92 354.7 308.02 347.12 310.26C343.38 311.37 340.37 314.37 339.27 318.11C337.03 325.7 329.93 330.99 322.01 330.99H53.01C45.09 330.99 37.99 325.69 35.75 318.1C34.65 314.36 31.64 311.36 27.9 310.25C20.31 308.01 15.01 300.91 15.01 292.99V52.99C15.01 45.07 20.31 37.97 27.9 35.73C31.64 34.62 34.64 31.62 35.75 27.88C38 20.29 45.09 14.99 53.01 14.99H322M322 13H53C43.93 13 36.27 19.04 33.82 27.32C32.9 30.42 30.43 32.9 27.32 33.82C19.04 36.27 13 43.93 13 53V293C13 302.07 19.04 309.73 27.32 312.18C30.43 313.1 32.9 315.57 33.82 318.68C36.27 326.96 43.93 333 53 333H322C331.08 333 338.73 326.96 341.18 318.68C342.1 315.57 344.57 313.1 347.68 312.18C355.96 309.73 362 302.07 362 293V53C362 43.93 355.96 36.27 347.68 33.82C344.57 32.9 342.1 30.43 341.18 27.32C338.73 19.04 331.07 13 322 13Z" stroke="#F7F7F7" stroke-width="2"/>
<path d="M64.27 317.59C57.09 317.59 50.65 312.78 48.61 305.9C47.58 302.42 44.78 299.62 41.3 298.6C34.42 296.56 29.61 290.13 29.61 282.94V63.05C29.61 55.87 34.42 49.43 41.3 47.39C44.78 46.36 47.57 43.56 48.6 40.09C50.64 33.21 57.07 28.4 64.26 28.4H310.72C317.9 28.4 324.34 33.21 326.38 40.09C327.41 43.57 330.21 46.37 333.68 47.4C340.56 49.43 345.37 55.87 345.37 63.06V282.95C345.37 290.13 340.57 296.57 333.69 298.61C330.21 299.64 327.41 302.44 326.38 305.92C324.35 312.8 317.91 317.6 310.72 317.6H64.27V317.59Z" fill="#FAF1EE"/>
<path d="M310.73 30.41C317.03 30.41 322.68 34.63 324.47 40.66C325.69 44.78 329.01 48.1 333.13 49.32C339.17 51.11 343.38 56.75 343.38 63.06V282.95C343.38 289.25 339.16 294.9 333.13 296.69C329.01 297.91 325.69 301.23 324.47 305.35C322.69 311.39 317.04 315.6 310.73 315.6H64.27C57.97 315.6 52.32 311.38 50.53 305.35C49.31 301.23 46 297.91 41.87 296.69C35.83 294.9 31.62 289.25 31.62 282.95V63.05C31.62 56.75 35.84 51.1 41.88 49.31C46 48.09 49.31 44.78 50.53 40.66C52.32 34.62 57.97 30.4 64.27 30.4H310.73M310.73 26.41H64.27C55.96 26.41 48.94 31.95 46.7 39.53C45.86 42.37 43.59 44.64 40.75 45.48C33.17 47.72 27.63 54.75 27.63 63.05V282.94C27.63 291.25 33.17 298.27 40.75 300.51C43.6 301.35 45.86 303.62 46.71 306.46C48.95 314.05 55.98 319.58 64.28 319.58H310.74C319.06 319.58 326.07 314.05 328.31 306.46C329.15 303.61 331.42 301.34 334.27 300.5C341.86 298.26 347.39 291.24 347.39 282.93V63.05C347.39 54.74 341.86 47.72 334.27 45.48C331.42 44.64 329.16 42.37 328.32 39.52C326.06 31.94 319.04 26.41 310.73 26.41Z" fill="#FFC28A"/>
</g>
<defs>
<filter id="filter0_d_465_5107" x="0" y="0" width="375" height="346" filterUnits="userSpaceOnUse" color-interpolation-filters="sRGB">
<feFlood flood-opacity="0" result="BackgroundImageFix"/>
<feColorMatrix in="SourceAlpha" type="matrix" values="0 0 0 0 0 0 0 0 0 0 0 0 0 0 0 0 0 0 127 0" result="hardAlpha"/>
<feOffset/>
<feGaussianBlur stdDeviation="6"/>
<feComposite in2="hardAlpha" operator="out"/>
<feColorMatrix type="matrix" values="0 0 0 0 0.4625 0 0 0 0 0.0635938 0 0 0 0 0.0635938 0 0 0 0.4 0"/>
<feBlend mode="normal" in2="BackgroundImageFix" result="effect1_dropShadow_465_5107"/>
<feBlend mode="normal" in="SourceGraphic" in2="effect1_dropShadow_465_5107" result="shape"/>
</filter>
</defs>
</svg>
