<svg width="75" height="77" viewBox="0 0 75 77" fill="none" xmlns="http://www.w3.org/2000/svg">
<g filter="url(#filter0_d_467_614)">
<path fill-rule="evenodd" clip-rule="evenodd" d="M36.2637 65.5274C52.9779 65.5274 66.5274 51.9779 66.5274 35.2637C66.5274 18.5495 52.9779 5 36.2637 5C19.5495 5 6 18.5495 6 35.2637C6 40.7568 7.46349 45.9081 10.0218 50.3489L6.36833 63.053C5.71654 65.3194 7.81421 67.4171 10.0806 66.7653L23.7594 62.8315C27.5708 64.563 31.8046 65.5274 36.2637 65.5274Z" fill="#F6634A"/>
<path d="M10.0218 50.3489L11.9439 50.9017L12.1785 50.086L11.7548 49.3506L10.0218 50.3489ZM6.36833 63.053L8.29043 63.6058L6.36833 63.053ZM10.0806 66.7653L10.6334 68.6874H10.6334L10.0806 66.7653ZM23.7594 62.8315L24.5866 61.0106L23.9153 60.7056L23.2066 60.9094L23.7594 62.8315ZM64.5274 35.2637C64.5274 50.8733 51.8733 63.5274 36.2637 63.5274V67.5274C54.0824 67.5274 68.5274 53.0824 68.5274 35.2637H64.5274ZM36.2637 7C51.8733 7 64.5274 19.6541 64.5274 35.2637H68.5274C68.5274 17.4449 54.0824 3 36.2637 3V7ZM8 35.2637C8 19.6541 20.6541 7 36.2637 7V3C18.4449 3 4 17.4449 4 35.2637H8ZM11.7548 49.3506C9.36674 45.2053 8 40.3971 8 35.2637H4C4 41.1165 5.56025 46.6109 8.28885 51.3473L11.7548 49.3506ZM8.29043 63.6058L11.9439 50.9017L8.09975 49.7962L4.44624 62.5002L8.29043 63.6058ZM9.52785 64.8432C8.77238 65.0604 8.07316 64.3612 8.29043 63.6058L4.44624 62.5002C3.35992 66.2776 6.85603 69.7737 10.6334 68.6874L9.52785 64.8432ZM23.2066 60.9094L9.52785 64.8432L10.6334 68.6874L24.3121 64.7535L23.2066 60.9094ZM36.2637 63.5274C32.0956 63.5274 28.1434 62.6264 24.5866 61.0106L22.9321 64.6523C26.9982 66.4996 31.5136 67.5274 36.2637 67.5274V63.5274Z" fill="white"/>
</g>
<path d="M40.25 23.25H47.3333C47.5195 23.2496 47.7039 23.286 47.8759 23.3571C48.048 23.4281 48.2043 23.5325 48.3359 23.6641C48.4675 23.7957 48.5719 23.952 48.6429 24.1241C48.714 24.2961 48.7504 24.4805 48.75 24.6667V31.75C48.75 31.9361 48.7134 32.1203 48.6422 32.2922C48.571 32.4641 48.4667 32.6203 48.3351 32.7519C48.2036 32.8835 48.0474 32.9878 47.8755 33.059C47.7036 33.1302 47.5194 33.1669 47.3333 33.1669C47.1473 33.1669 46.963 33.1302 46.7912 33.059C46.6193 32.9878 46.4631 32.8835 46.3315 32.7519C46.2 32.6203 46.0956 32.4641 46.0244 32.2922C45.9533 32.1203 45.9166 31.9361 45.9167 31.75V28.0865L34.1683 39.8349C33.9011 40.093 33.5432 40.2358 33.1718 40.2325C32.8003 40.2293 32.445 40.0803 32.1823 39.8177C31.9197 39.555 31.7707 39.1997 31.7675 38.8282C31.7642 38.4568 31.907 38.0989 32.1651 37.8318L43.9135 26.0833H40.25C40.0639 26.0834 39.8797 26.0467 39.7078 25.9756C39.5359 25.9044 39.3797 25.8 39.2481 25.6685C39.1166 25.5369 39.0122 25.3807 38.941 25.2089C38.8698 25.037 38.8331 24.8527 38.8331 24.6667C38.8331 24.4806 38.8698 24.2964 38.941 24.1245C39.0122 23.9526 39.1166 23.7964 39.2481 23.6649C39.3797 23.5333 39.5359 23.429 39.7078 23.3578C39.8797 23.2866 40.0639 23.25 40.25 23.25ZM33.1667 26.0833H28.9167C27.4138 26.0833 25.9724 26.6804 24.9097 27.7431C23.847 28.8058 23.25 30.2471 23.25 31.75V40.25C23.25 40.4361 23.2866 40.6203 23.3578 40.7922C23.429 40.9641 23.5333 41.1203 23.6649 41.2519C23.7964 41.3835 23.9526 41.4878 24.1245 41.559C24.2964 41.6302 24.4806 41.6669 24.6667 41.6669C24.8527 41.6669 25.037 41.6302 25.2089 41.559C25.3807 41.4878 25.5369 41.3835 25.6685 41.2519C25.8 41.1203 25.9044 40.9641 25.9756 40.7922C26.0467 40.6203 26.0834 40.4361 26.0833 40.25V31.75C26.0833 31.3779 26.1566 31.0095 26.299 30.6657C26.4414 30.322 26.6501 30.0096 26.9132 29.7465C27.1763 29.4834 27.4886 29.2747 27.8324 29.1323C28.1762 28.99 28.5446 28.9167 28.9167 28.9167H33.1667C33.5424 28.9167 33.9027 28.7674 34.1684 28.5017C34.4341 28.2361 34.5833 27.8757 34.5833 27.5C34.5833 27.1243 34.4341 26.7639 34.1684 26.4983C33.9027 26.2326 33.5424 26.0833 33.1667 26.0833ZM45.9167 43.0833C45.9167 43.4554 45.8434 43.8239 45.701 44.1676C45.5586 44.5114 45.3499 44.8237 45.0868 45.0868C44.8237 45.3499 44.5114 45.5586 44.1676 45.701C43.8239 45.8434 43.4554 45.9167 43.0833 45.9167H28.9167C27.8981 45.9167 27.0042 45.3783 26.5055 44.5723L26.5013 44.5751C26.3333 44.2388 26.0386 43.983 25.6821 43.864C25.3256 43.745 24.9364 43.7725 24.6001 43.9404C24.2638 44.1084 24.008 44.403 23.889 44.7596C23.77 45.1161 23.7975 45.5053 23.9654 45.8416L23.9683 45.8473C24.4599 46.7279 25.1778 47.4612 26.0477 47.9715C26.9177 48.4818 27.9081 48.7506 28.9167 48.75H43.0833C43.8276 48.75 44.5646 48.6034 45.2522 48.3185C45.9398 48.0337 46.5646 47.6161 47.0908 47.0898C47.617 46.5634 48.0344 45.9386 48.3191 45.2509C48.6038 44.5632 48.7502 43.8262 48.75 43.0819V38.8319C48.75 38.6459 48.7134 38.4616 48.6422 38.2897C48.571 38.1178 48.4667 37.9616 48.3351 37.83C48.2036 37.6985 48.0474 37.5941 47.8755 37.5229C47.7036 37.4517 47.5194 37.415 47.3333 37.415C47.1473 37.415 46.963 37.4517 46.7912 37.5229C46.6193 37.5941 46.4631 37.6985 46.3315 37.83C46.2 37.9616 46.0956 38.1178 46.0244 38.2897C45.9533 38.4616 45.9166 38.6459 45.9167 38.8319V43.0819V43.0833Z" fill="white" stroke="white"/>
<defs>
<filter id="filter0_d_467_614" x="2" y="3" width="72.5273" height="73.8887" filterUnits="userSpaceOnUse" color-interpolation-filters="sRGB">
<feFlood flood-opacity="0" result="BackgroundImageFix"/>
<feColorMatrix in="SourceAlpha" type="matrix" values="0 0 0 0 0 0 0 0 0 0 0 0 0 0 0 0 0 0 127 0" result="hardAlpha"/>
<feOffset dx="2" dy="4"/>
<feGaussianBlur stdDeviation="2"/>
<feComposite in2="hardAlpha" operator="out"/>
<feColorMatrix type="matrix" values="0 0 0 0 0.4625 0 0 0 0 0.0635938 0 0 0 0 0.0635938 0 0 0 0.4 0"/>
<feBlend mode="normal" in2="BackgroundImageFix" result="effect1_dropShadow_467_614"/>
<feBlend mode="normal" in="SourceGraphic" in2="effect1_dropShadow_467_614" result="shape"/>
</filter>
</defs>
</svg>
